<?xml version="1.0" encoding="utf-8"?>
<!-- Generator: Adobe Illustrator 16.0.0, SVG Export Plug-In . SVG Version: 6.00 Build 0)  -->
<!DOCTYPE svg PUBLIC "-//W3C//DTD SVG 1.1//EN" "http://www.w3.org/Graphics/SVG/1.1/DTD/svg11.dtd">
<svg version="1.1" id="Ebene_1" xmlns="http://www.w3.org/2000/svg" xmlns:xlink="http://www.w3.org/1999/xlink" x="0px" y="0px"
	 width="52.028px" height="52.527px" viewBox="0 0 52.028 52.527" enable-background="new 0 0 52.028 52.527" xml:space="preserve">
<path opacity="0.3216" fill="#B0AFCB" d="M26.385,3.51c0.721,0,1.439,0.035,2.157,0.105c0.717,0.071,1.429,0.176,2.135,0.317
	c0.707,0.141,1.405,0.315,2.095,0.525c0.689,0.209,1.367,0.451,2.033,0.727c0.665,0.276,1.315,0.583,1.951,0.923
	c0.636,0.339,1.253,0.709,1.852,1.11c0.6,0.4,1.178,0.829,1.734,1.286c0.557,0.458,1.09,0.94,1.6,1.45s0.993,1.043,1.45,1.6
	c0.457,0.557,0.886,1.135,1.286,1.734c0.4,0.599,0.77,1.216,1.109,1.852c0.34,0.636,0.647,1.286,0.924,1.952
	c0.275,0.666,0.518,1.343,0.727,2.033c0.21,0.689,0.385,1.388,0.525,2.095c0.141,0.707,0.246,1.418,0.316,2.135
	s0.105,1.436,0.105,2.157c0,0.72-0.035,1.439-0.105,2.157c-0.07,0.717-0.176,1.428-0.316,2.135s-0.315,1.404-0.525,2.094
	c-0.209,0.689-0.451,1.367-0.727,2.033c-0.276,0.666-0.584,1.316-0.924,1.951c-0.34,0.637-0.709,1.254-1.109,1.853
	s-0.829,1.177-1.286,1.733c-0.457,0.558-0.94,1.091-1.45,1.601c-0.51,0.509-1.043,0.993-1.6,1.45s-1.135,0.885-1.734,1.285
	c-0.599,0.4-1.216,0.771-1.852,1.11c-0.636,0.34-1.286,0.647-1.951,0.923c-0.666,0.275-1.344,0.519-2.033,0.728
	c-0.689,0.21-1.388,0.384-2.095,0.524c-0.706,0.141-1.418,0.246-2.135,0.316c-0.718,0.071-1.437,0.107-2.157,0.107
	c-0.72,0-1.438-0.036-2.156-0.107c-0.717-0.07-1.429-0.176-2.135-0.316c-0.707-0.141-1.405-0.314-2.095-0.524
	c-0.689-0.209-1.367-0.452-2.033-0.728c-0.665-0.275-1.315-0.583-1.951-0.923c-0.636-0.339-1.253-0.71-1.853-1.11
	c-0.599-0.4-1.177-0.828-1.733-1.285c-0.558-0.457-1.091-0.941-1.6-1.45c-0.51-0.51-0.993-1.043-1.45-1.601
	c-0.457-0.557-0.886-1.135-1.286-1.733s-0.771-1.216-1.11-1.853c-0.339-0.635-0.646-1.285-0.923-1.951
	c-0.275-0.666-0.518-1.344-0.728-2.033c-0.209-0.689-0.384-1.387-0.524-2.094s-0.246-1.418-0.316-2.135
	c-0.07-0.718-0.106-1.437-0.106-2.157c0-0.721,0.036-1.439,0.106-2.157s0.176-1.429,0.316-2.135
	c0.141-0.707,0.315-1.405,0.524-2.095c0.21-0.689,0.452-1.367,0.728-2.033c0.276-0.666,0.584-1.316,0.923-1.952
	c0.34-0.635,0.71-1.253,1.11-1.852c0.4-0.599,0.829-1.177,1.286-1.734c0.457-0.557,0.94-1.09,1.45-1.6
	c0.509-0.51,1.042-0.993,1.6-1.45c0.557-0.457,1.135-0.886,1.733-1.286c0.6-0.4,1.217-0.771,1.853-1.11
	c0.636-0.34,1.286-0.647,1.951-0.923c0.666-0.276,1.344-0.518,2.033-0.727c0.689-0.209,1.388-0.384,2.095-0.525
	c0.706-0.141,1.418-0.246,2.135-0.317C24.946,3.545,25.665,3.51,26.385,3.51z"/>
<path fill="none" stroke="#4E5B9F" stroke-width="2" stroke-linecap="round" stroke-linejoin="round" d="M8.219,35.491v-21
	c0-0.276,0.098-0.512,0.293-0.707s0.432-0.293,0.707-0.293h34c0.276,0,0.513,0.098,0.707,0.293c0.195,0.195,0.293,0.431,0.293,0.707
	v21c0,0.275-0.098,0.512-0.293,0.707c-0.194,0.195-0.431,0.293-0.707,0.293h-34c-0.275,0-0.512-0.098-0.707-0.293
	S8.219,35.766,8.219,35.491z"/>
<rect x="8.219" y="17.49" fill="none" stroke="#4E5B9F" stroke-width="2" stroke-linecap="round" stroke-linejoin="round" width="36" height="5"/>
<line fill="none" stroke="#4E5B9F" stroke-width="2" stroke-linecap="round" stroke-linejoin="round" x1="11.219" y1="30.491" x2="17.219" y2="30.491"/>
<line fill="none" stroke="#4E5B9F" stroke-width="2" stroke-linecap="round" stroke-linejoin="round" x1="22.219" y1="30.491" x2="27.219" y2="30.491"/>
</svg>
