<?xml version="1.0" encoding="utf-8"?>
<!-- Generator: Adobe Illustrator 16.0.0, SVG Export Plug-In . SVG Version: 6.00 Build 0)  -->
<!DOCTYPE svg PUBLIC "-//W3C//DTD SVG 1.1//EN" "http://www.w3.org/Graphics/SVG/1.1/DTD/svg11.dtd">
<svg version="1.1" id="Ebene_1" xmlns="http://www.w3.org/2000/svg" xmlns:xlink="http://www.w3.org/1999/xlink" x="0px" y="0px"
	 width="52.028px" height="52.527px" viewBox="0 0 52.028 52.527" enable-background="new 0 0 52.028 52.527" xml:space="preserve">
<path opacity="0.3216" fill="#B0AFCB" d="M27.552,4.51c0.721,0,1.439,0.035,2.156,0.105c0.717,0.071,1.429,0.176,2.135,0.317
	c0.707,0.141,1.405,0.315,2.095,0.525c0.689,0.209,1.367,0.451,2.032,0.727c0.666,0.276,1.316,0.583,1.952,0.923
	c0.636,0.339,1.253,0.709,1.853,1.11c0.599,0.4,1.177,0.829,1.733,1.286c0.558,0.458,1.091,0.94,1.6,1.45
	c0.51,0.51,0.993,1.043,1.45,1.6c0.457,0.557,0.886,1.135,1.286,1.734c0.4,0.599,0.771,1.216,1.11,1.852
	c0.339,0.636,0.646,1.286,0.922,1.952c0.276,0.666,0.519,1.343,0.729,2.033c0.209,0.689,0.383,1.388,0.523,2.095
	c0.141,0.707,0.246,1.418,0.317,2.135s0.106,1.436,0.106,2.157c0,0.72-0.035,1.438-0.106,2.156
	c-0.071,0.717-0.177,1.428-0.317,2.135s-0.314,1.404-0.523,2.094c-0.21,0.689-0.452,1.367-0.729,2.033
	c-0.275,0.666-0.583,1.316-0.922,1.951c-0.34,0.637-0.71,1.254-1.11,1.853s-0.829,1.177-1.286,1.733
	c-0.457,0.558-0.94,1.091-1.45,1.601c-0.509,0.509-1.042,0.993-1.6,1.45c-0.557,0.457-1.135,0.885-1.733,1.285
	c-0.6,0.4-1.217,0.771-1.853,1.11c-0.636,0.34-1.286,0.647-1.952,0.923c-0.665,0.275-1.343,0.519-2.032,0.728
	c-0.689,0.21-1.388,0.384-2.095,0.524c-0.706,0.141-1.418,0.246-2.135,0.316c-0.717,0.071-1.436,0.107-2.156,0.107
	c-0.721,0-1.44-0.036-2.157-0.107c-0.717-0.07-1.429-0.176-2.136-0.316s-1.405-0.314-2.094-0.524
	c-0.689-0.209-1.367-0.452-2.033-0.728s-1.316-0.583-1.952-0.923c-0.636-0.339-1.253-0.71-1.852-1.11s-1.177-0.828-1.734-1.285
	c-0.557-0.457-1.09-0.941-1.6-1.45c-0.51-0.51-0.993-1.043-1.45-1.601c-0.457-0.557-0.886-1.135-1.286-1.733s-0.77-1.216-1.11-1.853
	c-0.339-0.635-0.647-1.285-0.923-1.951c-0.276-0.666-0.519-1.344-0.728-2.033s-0.384-1.387-0.524-2.094
	c-0.141-0.707-0.247-1.418-0.317-2.135c-0.071-0.718-0.106-1.437-0.106-2.156c0-0.721,0.035-1.44,0.106-2.157
	c0.07-0.717,0.176-1.429,0.317-2.135c0.14-0.707,0.315-1.405,0.524-2.095s0.452-1.367,0.728-2.033
	c0.275-0.666,0.583-1.316,0.923-1.952c0.34-0.635,0.709-1.253,1.11-1.852c0.4-0.599,0.829-1.177,1.286-1.734
	c0.457-0.557,0.94-1.09,1.45-1.6c0.509-0.51,1.042-0.993,1.6-1.45c0.557-0.457,1.135-0.886,1.734-1.286
	c0.599-0.4,1.216-0.771,1.852-1.11c0.635-0.34,1.286-0.647,1.952-0.923s1.343-0.518,2.033-0.727
	c0.689-0.209,1.388-0.384,2.094-0.525s1.418-0.246,2.136-0.317C26.112,4.545,26.831,4.51,27.552,4.51z"/>
<path fill="#4E5C9F" d="M10.834,44.771L10.8,28c0-0.263,0.16-0.498,0.405-0.594l16.212-6.325c0.15-0.059,0.316-0.058,0.467,0.002
	l15.719,6.266c0.24,0.096,0.399,0.33,0.4,0.59l0.033,16.708l-1.271,0.003L42.731,28.37l-15.086-6.013l-15.572,6.075l0.033,16.336
	L10.834,44.771z"/>
<path fill="#4E5C9F" d="M11.667,34.547l-0.462-1.186l16.212-6.325c0.15-0.059,0.316-0.058,0.467,0.002l15.719,6.266l-0.472,1.182
	l-15.485-6.173L11.667,34.547z"/>
<path fill="#4E5C9F" d="M43.498,37.243c-0.078,0-0.158-0.014-0.235-0.045L27.78,31.026l-5.462,2.188
	c-0.326,0.131-0.696-0.027-0.827-0.354c-0.131-0.326,0.027-0.697,0.354-0.827l5.698-2.282c0.151-0.061,0.32-0.061,0.472,0
	l15.719,6.266c0.326,0.131,0.485,0.5,0.355,0.826C43.989,37.092,43.751,37.243,43.498,37.243z"/>
<path fill="#4E5C9F" d="M14.891,43.819h4.307l0.043-9.412l-4.35,1.697V43.819z M19.831,45.09h-5.576
	c-0.351,0-0.636-0.285-0.636-0.637v-8.784c0-0.262,0.161-0.497,0.405-0.593l5.626-2.195c0.196-0.076,0.417-0.051,0.591,0.068
	c0.173,0.119,0.277,0.316,0.276,0.527l-0.05,10.98C20.466,44.807,20.181,45.09,19.831,45.09z"/>
<rect x="27.06" y="21.673" fill="#4E5C9F" width="1.272" height="23.097"/>
<path fill="#4E5C9F" d="M47.53,45.301H7.24c-0.352,0-0.636-0.285-0.636-0.636S6.889,44.03,7.24,44.03h40.29
	c0.352,0,0.636,0.285,0.636,0.636S47.882,45.301,47.53,45.301z"/>
<path fill="#4E5C9F" d="M16.791,18.204v6.91l1.022-0.524l0.037-6.386H16.791z M16.155,26.79c-0.115,0-0.23-0.031-0.332-0.093
	c-0.189-0.116-0.304-0.321-0.304-0.542v-8.587c0-0.351,0.285-0.636,0.636-0.636h2.335c0.169,0,0.332,0.067,0.451,0.188
	c0.12,0.12,0.186,0.283,0.185,0.452l-0.043,7.411c-0.001,0.237-0.135,0.454-0.346,0.563l-2.292,1.175
	C16.354,26.766,16.254,26.79,16.155,26.79z"/>
<path fill="#4E5C9F" d="M16.386,16.958h1.832l0.779-0.726l-0.018-2.043h-3.353l-0.019,2.043L16.386,16.958z M18.469,18.23h-2.333
	c-0.161,0-0.316-0.061-0.434-0.171l-1.167-1.088c-0.13-0.122-0.204-0.292-0.202-0.471l0.026-2.953
	c0.003-0.349,0.287-0.63,0.636-0.63h4.613c0.349,0,0.633,0.281,0.636,0.63l0.026,2.953c0.001,0.179-0.072,0.349-0.202,0.471
	l-1.167,1.088C18.785,18.169,18.629,18.23,18.469,18.23z"/>
<path fill="#4E5C9F" d="M15.032,12.557h4.703v-1.07h-4.703V12.557z M20.371,13.829h-5.975c-0.352,0-0.636-0.285-0.636-0.636v-2.342
	c0-0.351,0.285-0.636,0.636-0.636h5.975c0.351,0,0.636,0.285,0.636,0.636v2.342C21.007,13.544,20.722,13.829,20.371,13.829z"/>
<path fill="#4E5C9F" d="M15.665,10.176h3.174v-0.167c0-0.863-0.702-1.565-1.565-1.565h-0.044c-0.863,0-1.564,0.702-1.564,1.565
	V10.176z M19.475,11.448h-4.446c-0.351,0-0.636-0.285-0.636-0.636v-0.802c0-1.564,1.272-2.836,2.836-2.836h0.044
	c1.564,0,2.837,1.272,2.837,2.836v0.802C20.11,11.163,19.826,11.448,19.475,11.448z"/>
<path fill="#4E5C9F" d="M17.273,8.444c-0.349,0-0.633-0.281-0.636-0.63l-0.022-2.663c-0.003-0.352,0.279-0.638,0.631-0.641h0.005
	c0.349,0,0.633,0.281,0.636,0.63l0.022,2.663c0.003,0.351-0.28,0.638-0.631,0.641H17.273z"/>
<path fill="#4E5C9F" d="M37.369,24.589l1.021,0.524v-6.91h-1.06L37.369,24.589z M39.027,26.79c-0.1,0-0.199-0.023-0.29-0.069
	l-2.292-1.175c-0.212-0.108-0.345-0.325-0.347-0.563l-0.043-7.411c-0.001-0.169,0.065-0.332,0.186-0.452
	c0.119-0.12,0.281-0.188,0.45-0.188h2.336c0.351,0,0.636,0.285,0.636,0.636v8.587c0,0.222-0.115,0.426-0.305,0.542
	C39.257,26.758,39.142,26.79,39.027,26.79z"/>
<path fill="#4E5C9F" d="M36.963,16.958h1.832l0.778-0.726l-0.018-2.043h-3.353l-0.019,2.043L36.963,16.958z M39.046,18.23h-2.333
	c-0.161,0-0.316-0.061-0.435-0.171l-1.166-1.088c-0.131-0.122-0.204-0.292-0.202-0.471l0.026-2.953
	c0.003-0.349,0.287-0.63,0.637-0.63h4.612c0.349,0,0.633,0.281,0.636,0.63l0.027,2.953c0.001,0.179-0.072,0.349-0.203,0.471
	l-1.166,1.088C39.361,18.169,39.207,18.23,39.046,18.23z"/>
<path fill="#4E5C9F" d="M35.446,12.557h4.703v-1.07h-4.703V12.557z M40.784,13.829H34.81c-0.351,0-0.635-0.285-0.635-0.636v-2.342
	c0-0.351,0.284-0.636,0.635-0.636h5.975c0.352,0,0.637,0.285,0.637,0.636v2.342C41.421,13.544,41.136,13.829,40.784,13.829z"/>
<path fill="#4E5C9F" d="M36.343,10.176h3.175v-0.167c0-0.863-0.702-1.565-1.565-1.565h-0.044c-0.863,0-1.565,0.702-1.565,1.565
	V10.176z M40.153,11.448h-4.446c-0.351,0-0.636-0.285-0.636-0.636v-0.802c0-1.564,1.272-2.836,2.837-2.836h0.044
	c1.564,0,2.837,1.272,2.837,2.836v0.802C40.789,11.163,40.505,11.448,40.153,11.448z"/>
<path fill="#4E5C9F" d="M37.908,8.444h-0.006c-0.351-0.003-0.634-0.29-0.63-0.641l0.021-2.663c0.004-0.349,0.287-0.63,0.637-0.63
	h0.005c0.352,0.003,0.634,0.29,0.631,0.641l-0.022,2.663C38.541,8.163,38.257,8.444,37.908,8.444z"/>
</svg>
