<?xml version="1.0" encoding="utf-8"?>
<!-- Generator: Adobe Illustrator 16.0.0, SVG Export Plug-In . SVG Version: 6.00 Build 0)  -->
<!DOCTYPE svg PUBLIC "-//W3C//DTD SVG 1.1//EN" "http://www.w3.org/Graphics/SVG/1.1/DTD/svg11.dtd">
<svg version="1.1" id="Ebene_1" xmlns="http://www.w3.org/2000/svg" xmlns:xlink="http://www.w3.org/1999/xlink" x="0px" y="0px"
	 width="52.028px" height="52.527px" viewBox="0 0 52.028 52.527" enable-background="new 0 0 52.028 52.527" xml:space="preserve">
<path opacity="0.3216" fill="#B0AFCB" d="M25.553,7.213c0.72,0,1.438,0.036,2.156,0.106c0.717,0.071,1.429,0.176,2.136,0.317
	c0.706,0.141,1.404,0.315,2.094,0.524c0.689,0.209,1.367,0.452,2.033,0.728c0.665,0.276,1.316,0.583,1.951,0.923
	c0.636,0.34,1.253,0.709,1.853,1.11c0.599,0.4,1.177,0.829,1.733,1.286c0.558,0.457,1.091,0.94,1.6,1.45
	c0.51,0.509,0.993,1.042,1.45,1.6c0.457,0.557,0.886,1.135,1.286,1.734s0.771,1.216,1.11,1.852c0.339,0.635,0.647,1.286,0.923,1.952
	s0.518,1.343,0.728,2.033c0.209,0.689,0.384,1.388,0.524,2.094s0.246,1.418,0.316,2.136c0.07,0.717,0.106,1.436,0.106,2.156
	s-0.036,1.439-0.106,2.156s-0.176,1.429-0.316,2.135c-0.141,0.707-0.315,1.405-0.524,2.095c-0.21,0.689-0.452,1.367-0.728,2.032
	c-0.275,0.666-0.584,1.316-0.923,1.952c-0.34,0.636-0.71,1.253-1.11,1.853c-0.4,0.599-0.829,1.177-1.286,1.733
	c-0.457,0.558-0.94,1.091-1.45,1.6c-0.509,0.51-1.042,0.993-1.6,1.45c-0.557,0.457-1.135,0.886-1.733,1.286
	c-0.6,0.4-1.217,0.771-1.853,1.11c-0.635,0.339-1.286,0.646-1.951,0.923c-0.666,0.275-1.344,0.519-2.033,0.728
	s-1.388,0.384-2.094,0.524c-0.707,0.14-1.419,0.246-2.136,0.316c-0.718,0.071-1.437,0.106-2.156,0.106
	c-0.721,0-1.439-0.035-2.157-0.106c-0.717-0.07-1.429-0.177-2.135-0.316c-0.707-0.141-1.405-0.315-2.095-0.524
	s-1.367-0.452-2.032-0.728c-0.666-0.276-1.316-0.584-1.952-0.923c-0.636-0.34-1.253-0.71-1.852-1.11
	c-0.6-0.4-1.178-0.829-1.734-1.286s-1.09-0.94-1.6-1.45c-0.51-0.509-0.993-1.042-1.45-1.6c-0.457-0.557-0.886-1.135-1.286-1.733
	c-0.4-0.6-0.77-1.217-1.109-1.853s-0.647-1.286-0.923-1.952c-0.276-0.665-0.519-1.343-0.728-2.032
	c-0.21-0.689-0.384-1.388-0.524-2.095c-0.141-0.706-0.246-1.418-0.317-2.135c-0.07-0.717-0.105-1.436-0.105-2.156
	s0.035-1.439,0.105-2.156c0.071-0.718,0.177-1.43,0.317-2.136S4.29,23.516,4.5,22.827c0.209-0.689,0.451-1.367,0.728-2.033
	c0.275-0.666,0.583-1.316,0.923-1.952c0.34-0.636,0.709-1.253,1.109-1.852s0.829-1.177,1.286-1.734c0.457-0.557,0.94-1.09,1.45-1.6
	c0.51-0.51,1.043-0.993,1.6-1.45s1.135-0.886,1.734-1.286c0.599-0.4,1.216-0.77,1.852-1.11c0.636-0.339,1.286-0.647,1.952-0.923
	c0.665-0.276,1.343-0.518,2.032-0.728c0.689-0.209,1.388-0.384,2.095-0.524c0.706-0.141,1.418-0.246,2.135-0.317
	C24.113,7.249,24.832,7.213,25.553,7.213z"/>
<path fill="#4E5C9F" d="M20.468,40.45h1.296c0.439,0,0.796,0.357,0.796,0.796v8.064c0,0.896,0.729,1.625,1.625,1.625h3.693
	c0.896,0,1.625-0.729,1.625-1.625v-8.064c0-0.438,0.355-0.796,0.795-0.796h1.296v-8.902c0-1.227-0.997-2.223-2.223-2.223H22.69
	c-1.226,0-2.223,0.996-2.223,2.223V40.45z M27.878,52.527h-3.693c-1.774,0-3.217-1.443-3.217-3.217v-7.269h-1.295
	c-0.439,0-0.797-0.356-0.797-0.796v-9.698c0-2.104,1.711-3.814,3.814-3.814h6.681c2.104,0,3.814,1.711,3.814,3.814v9.698
	c0,0.439-0.356,0.796-0.796,0.796h-1.296v7.269C31.094,51.083,29.651,52.527,27.878,52.527z"/>
<path fill="#4E5C9F" d="M26.03,52.526c-0.439,0-0.795-0.355-0.795-0.795v-8.352c0-0.439,0.355-0.797,0.795-0.797
	c0.44,0,0.797,0.357,0.797,0.797v8.352C26.827,52.17,26.471,52.526,26.03,52.526z"/>
<path fill="#4E5C9F" d="M26.031,18.061c-1.63,0-2.956,1.325-2.956,2.955c0,1.629,1.326,2.955,2.956,2.955s2.955-1.326,2.955-2.955
	C28.986,19.386,27.661,18.061,26.031,18.061z M26.031,25.563c-2.508,0-4.548-2.04-4.548-4.547s2.04-4.547,4.548-4.547
	s4.547,2.04,4.547,4.547S28.539,25.563,26.031,25.563z"/>
<path fill="#4E5C9F" d="M39.531,1.592c-2.598,0-4.711,2.422-4.711,5.399s2.113,5.399,4.711,5.399s4.711-2.422,4.711-5.399
	S42.129,1.592,39.531,1.592z M39.531,13.981c-3.476,0-6.303-3.136-6.303-6.991S36.056,0,39.531,0s6.303,3.136,6.303,6.991
	S43.007,13.981,39.531,13.981z"/>
<path fill="#4E5C9F" d="M37.927,52.526h-2.298c-1.323,0-2.4-1.076-2.4-2.398c0-0.439,0.356-0.797,0.796-0.797
	s0.796,0.357,0.796,0.797c0,0.445,0.362,0.807,0.809,0.807h2.298c0.446,0,0.809-0.361,0.809-0.807V37.964
	c0-0.439,0.356-0.796,0.796-0.796s0.796,0.356,0.796,0.796v12.163C40.327,51.45,39.25,52.526,37.927,52.526z"/>
<path fill="#4E5C9F" d="M43.434,52.527h-2.299c-1.323,0-2.399-1.076-2.399-2.399V37.964c0-0.439,0.356-0.796,0.796-0.796
	s0.796,0.356,0.796,0.796v12.163c0,0.445,0.361,0.808,0.808,0.808h2.299c0.446,0,0.809-0.362,0.809-0.808V26.952
	c0-0.439,0.356-0.796,0.796-0.796s0.796,0.356,0.796,0.796v23.176C45.834,51.451,44.757,52.527,43.434,52.527z"/>
<path fill="#4E5C9F" d="M45.039,39.005c-0.291,0-0.571-0.159-0.711-0.437c-0.198-0.392-0.042-0.871,0.351-1.069
	c3.552-1.801,5.759-5.282,5.759-9.085c0-5.682-4.893-10.304-10.906-10.304c-1.796,0-3.576,0.421-5.148,1.218
	c-0.394,0.201-0.871,0.041-1.069-0.35c-0.199-0.392-0.042-0.871,0.351-1.07c1.794-0.91,3.823-1.391,5.867-1.391
	c6.892,0,12.497,5.336,12.497,11.896c0,4.406-2.54,8.432-6.631,10.505C45.283,38.978,45.159,39.005,45.039,39.005z"/>
<path fill="#4E5C9F" d="M12.497,1.592c-2.598,0-4.711,2.422-4.711,5.399s2.113,5.399,4.711,5.399s4.711-2.422,4.711-5.399
	S15.095,1.592,12.497,1.592z M12.497,13.981c-3.476,0-6.303-3.136-6.303-6.991S9.021,0,12.497,0S18.8,3.136,18.8,6.991
	S15.973,13.981,12.497,13.981z"/>
<path fill="#4E5C9F" d="M16.399,52.526h-2.298c-1.323,0-2.4-1.076-2.4-2.398v-4.463c0-0.439,0.356-0.796,0.796-0.796
	s0.796,0.356,0.796,0.796v4.463c0,0.445,0.362,0.807,0.809,0.807h2.298c0.446,0,0.809-0.361,0.809-0.807
	c0-0.439,0.356-0.797,0.796-0.797s0.796,0.357,0.796,0.797C18.8,51.45,17.724,52.526,16.399,52.526z"/>
<path fill="#4E5C9F" d="M10.894,52.526H8.595c-1.323,0-2.4-1.076-2.4-2.398v-7.251H1.215c-0.262,0-0.507-0.129-0.655-0.345
	c-0.148-0.215-0.182-0.49-0.088-0.734l5.774-15.13c0.156-0.41,0.618-0.618,1.028-0.459c0.41,0.157,0.616,0.617,0.46,1.027
	l-5.363,14.05H6.99c0.439,0,0.796,0.356,0.796,0.796v8.047c0,0.445,0.363,0.808,0.809,0.808h2.299c0.446,0,0.808-0.362,0.808-0.808
	v-4.463c0-0.439,0.356-0.796,0.796-0.796s0.796,0.356,0.796,0.796v4.463C13.293,51.45,12.216,52.526,10.894,52.526z"/>
<path fill="#4E5C9F" d="M3.655,36.48c-0.215,0-0.43-0.087-0.587-0.259C1.09,34.057,0,31.286,0,28.415
	c0-6.56,5.605-11.896,12.497-11.896c2.045,0,4.073,0.481,5.867,1.391c0.393,0.199,0.55,0.678,0.351,1.07
	c-0.198,0.391-0.676,0.55-1.069,0.35c-1.572-0.797-3.353-1.218-5.148-1.218c-6.014,0-10.905,4.622-10.905,10.304
	c0,2.472,0.941,4.863,2.651,6.732c0.297,0.324,0.273,0.828-0.051,1.124C4.04,36.411,3.848,36.48,3.655,36.48z"/>
</svg>
