<?xml version="1.0" encoding="utf-8"?>
<!-- Generator: Adobe Illustrator 16.0.0, SVG Export Plug-In . SVG Version: 6.00 Build 0)  -->
<!DOCTYPE svg PUBLIC "-//W3C//DTD SVG 1.1//EN" "http://www.w3.org/Graphics/SVG/1.1/DTD/svg11.dtd">
<svg version="1.1" id="Ebene_1" xmlns="http://www.w3.org/2000/svg" xmlns:xlink="http://www.w3.org/1999/xlink" x="0px" y="0px"
	 width="52.028px" height="52.527px" viewBox="0 0 52.028 52.527" enable-background="new 0 0 52.028 52.527" xml:space="preserve">
<path opacity="0.3216" fill="#B0AFCB" d="M25.578,8.113c0.683,0,1.365,0.033,2.043,0.1c0.681,0.066,1.354,0.167,2.022,0.3
	c0.671,0.134,1.332,0.299,1.985,0.498c0.653,0.197,1.295,0.427,1.926,0.688s1.248,0.554,1.849,0.875
	c0.603,0.322,1.188,0.673,1.755,1.052s1.115,0.786,1.644,1.219c0.527,0.434,1.031,0.891,1.516,1.374
	c0.481,0.483,0.939,0.989,1.373,1.516c0.435,0.528,0.839,1.075,1.219,1.643c0.379,0.568,0.729,1.153,1.051,1.755
	c0.322,0.602,0.613,1.219,0.875,1.849c0.261,0.63,0.49,1.272,0.688,1.926c0.199,0.653,0.365,1.315,0.496,1.984
	c0.134,0.67,0.234,1.345,0.302,2.023c0.067,0.681,0.101,1.36,0.101,2.044c0,0.683-0.033,1.363-0.101,2.043
	c-0.067,0.681-0.168,1.354-0.302,2.022c-0.131,0.67-0.297,1.331-0.496,1.985c-0.198,0.652-0.428,1.295-0.688,1.925
	c-0.262,0.632-0.553,1.248-0.875,1.85c-0.321,0.603-0.672,1.188-1.051,1.755c-0.38,0.566-0.784,1.115-1.219,1.643
	c-0.434,0.527-0.892,1.032-1.373,1.517c-0.484,0.481-0.988,0.938-1.516,1.373c-0.528,0.435-1.076,0.839-1.644,1.217
	c-0.567,0.381-1.152,0.73-1.755,1.053c-0.601,0.322-1.218,0.613-1.849,0.875c-0.631,0.261-1.272,0.49-1.926,0.688
	c-0.653,0.199-1.314,0.365-1.985,0.496c-0.669,0.134-1.342,0.234-2.022,0.302c-0.678,0.066-1.36,0.1-2.043,0.1
	c-0.684,0-1.364-0.033-2.042-0.1c-0.68-0.067-1.354-0.168-2.024-0.302c-0.669-0.131-1.331-0.297-1.984-0.496
	c-0.653-0.198-1.295-0.428-1.926-0.688c-0.63-0.262-1.248-0.553-1.85-0.875s-1.187-0.672-1.754-1.053
	c-0.568-0.378-1.115-0.782-1.643-1.217c-0.527-0.435-1.033-0.892-1.516-1.373c-0.483-0.484-0.94-0.989-1.374-1.517
	c-0.433-0.527-0.839-1.076-1.218-1.643c-0.379-0.567-0.73-1.152-1.052-1.755c-0.321-0.602-0.613-1.218-0.875-1.85
	c-0.261-0.63-0.491-1.272-0.689-1.925c-0.198-0.654-0.364-1.315-0.497-1.985C5.001,32.353,4.901,31.68,4.834,31
	c-0.067-0.68-0.1-1.36-0.1-2.043c0-0.684,0.033-1.363,0.1-2.044c0.067-0.678,0.167-1.353,0.3-2.023
	c0.133-0.669,0.299-1.331,0.497-1.984C5.83,22.252,6.06,21.61,6.321,20.98s0.553-1.247,0.875-1.849
	c0.322-0.602,0.672-1.187,1.052-1.755c0.379-0.567,0.786-1.115,1.218-1.643c0.434-0.527,0.891-1.033,1.374-1.516
	c0.483-0.483,0.988-0.94,1.516-1.374c0.528-0.433,1.075-0.84,1.643-1.219c0.567-0.379,1.152-0.73,1.754-1.052
	c0.602-0.321,1.219-0.613,1.85-0.875c0.631-0.261,1.272-0.491,1.926-0.688c0.653-0.199,1.315-0.364,1.984-0.498
	c0.669-0.133,1.344-0.233,2.024-0.3C24.214,8.146,24.895,8.113,25.578,8.113z"/>
<g>
	<g>
		<defs>
			<polygon id="SVGID_1_" points="31.44,19.215 32.327,24.839 33.349,28.143 34.043,31.512 34.763,33.934 35.272,36.321 
				34.763,38.528 34.763,40.592 33.349,42.754 32.327,44.594 31.005,46.471 31.005,50.803 46.198,50.198 44.074,35.334 
				48.644,32.446 47.851,15.525 42.102,13.586 43.478,10.51 42.755,4.676 35.272,3.626 31.005,7.936 32.327,13.032 30.507,14.939 
				31.44,17.157 			"/>
		</defs>
		<clipPath id="SVGID_2_">
			<use xlink:href="#SVGID_1_"  overflow="visible"/>
		</clipPath>
		<g clip-path="url(#SVGID_2_)" enable-background="new    ">
			<g>
				<defs>
					<rect id="SVGID_3_" x="30.326" y="3.539" width="18.515" height="47.292"/>
				</defs>
				<clipPath id="SVGID_4_">
					<use xlink:href="#SVGID_3_"  overflow="visible"/>
				</clipPath>
				<path clip-path="url(#SVGID_4_)" fill="#4E5C9F" d="M37.68,6.917c-1.635,0-2.965,1.33-2.965,2.964
					c0,1.636,1.33,2.966,2.965,2.966s2.965-1.33,2.965-2.966C40.645,8.247,39.314,6.917,37.68,6.917z M37.68,14.481
					c-2.535,0-4.599-2.063-4.599-4.6c0-2.536,2.063-4.599,4.599-4.599c2.536,0,4.599,2.063,4.599,4.599
					C42.278,12.418,40.216,14.481,37.68,14.481z"/>
				<path clip-path="url(#SVGID_4_)" fill="#4E5C9F" d="M33.751,47.204h3.111V35.428c0-0.451,0.366-0.816,0.817-0.816
					s0.817,0.365,0.817,0.816v11.775h3.111V23.603c0-0.451,0.366-0.817,0.817-0.817c0.452,0,0.817,0.366,0.817,0.817v8.974
					l2.668-1.322v-8.409c0-2.771-1.7-5.274-4.364-6.482l-3.433,2.149c-0.017,0.01-0.033,0.016-0.05,0.024
					c-0.026,0.013-0.05,0.027-0.076,0.038c-0.024,0.01-0.051,0.018-0.077,0.025c-0.024,0.008-0.049,0.015-0.074,0.02
					c-0.026,0.005-0.054,0.007-0.08,0.011c-0.025,0.002-0.051,0.004-0.077,0.004c-0.025,0-0.051-0.002-0.075-0.004
					c-0.029-0.003-0.055-0.006-0.082-0.011c-0.025-0.005-0.049-0.012-0.073-0.02c-0.026-0.007-0.053-0.016-0.078-0.026
					c-0.024-0.01-0.049-0.023-0.072-0.036c-0.018-0.009-0.036-0.016-0.053-0.026l-3.433-2.149c-2.665,1.208-4.363,3.711-4.363,6.482
					v3.248c0.989,0.601,1.885,1.333,2.666,2.178v-4.668c0-0.451,0.366-0.817,0.817-0.817s0.817,0.366,0.817,0.817v6.886
					c1.032,1.797,1.634,3.871,1.634,6.09c0,2.217-0.602,4.295-1.634,6.09V47.204z M33.751,36.579c0-2.254-0.295-4.998-5.043-9.418
					c-0.379,0.34-0.484,1.313,0,4.096c0.258,1.484,0.666,3.402,1.107,5.23c0.72,2.979,1.575,5.758,2.021,6.158
					C33.039,40.922,33.751,38.834,33.751,36.579z M27.815,25.252v-2.407c0-3.573,2.266-6.776,5.771-8.16
					c0.238-0.097,0.513-0.07,0.732,0.068l3.36,2.104l3.36-2.104c0.22-0.138,0.493-0.163,0.733-0.068
					c3.504,1.384,5.771,4.587,5.771,8.16v8.915c0,0.311-0.176,0.592-0.453,0.73l-3.848,1.912V48.02c0,0.451-0.365,0.816-0.817,0.816
					H37.68h-4.746c-0.451,0-0.817-0.365-0.817-0.816v-3.135C29.874,47.311,26.368,24.65,27.815,25.252z"/>
			</g>
		</g>
	</g>
</g>
<g>
	<path fill="#4E5B9F" d="M14.826,47.174c-0.176,0.035-0.355,0.053-0.531,0.053c-1.316,0-2.454-0.941-2.707-2.234L6.404,18.381
		c-0.14-0.724,0.009-1.46,0.422-2.071c0.412-0.612,1.037-1.027,1.761-1.167l17.759-3.459c0.176-0.035,0.355-0.052,0.532-0.052
		c1.315,0,2.454,0.939,2.706,2.234l5.186,26.612c0.289,1.494-0.689,2.945-2.183,3.238L14.826,47.174z M36.354,40.168l-5.183-26.612
		c-0.4-2.053-2.205-3.542-4.294-3.542c-0.28,0-0.563,0.027-0.842,0.082l-17.758,3.46c-1.147,0.223-2.139,0.88-2.793,1.85
		c-0.653,0.97-0.89,2.136-0.667,3.284l5.185,26.612c0.399,2.053,2.206,3.541,4.293,3.541c0.28,0,0.563-0.027,0.841-0.08
		l17.759-3.461C35.264,44.84,36.816,42.536,36.354,40.168z"/>
	<path fill="#4E5B9F" d="M26.696,36.321L17.51,38.11c-0.438,0.084-0.725,0.508-0.64,0.947c0.076,0.387,0.414,0.654,0.792,0.654
		c0.052,0,0.104-0.006,0.155-0.018l9.186-1.787c0.438-0.086,0.725-0.51,0.639-0.947C27.559,36.52,27.132,36.233,26.696,36.321z"/>
	<path fill="#4E5B9F" d="M30.815,39.852l-15.798,3.076c-0.438,0.084-0.724,0.51-0.639,0.947c0.075,0.387,0.414,0.654,0.792,0.654
		c0.051,0,0.104-0.004,0.156-0.014l15.797-3.078c0.438-0.086,0.724-0.51,0.639-0.949C31.678,40.051,31.249,39.764,30.815,39.852z"/>
	<path fill="#4E5B9F" d="M11.58,26.93c-0.307-1.656-0.091-3.289,0.525-4.733c0.906,0.532,1.874,0.922,2.875,1.163
		c-0.029,0.962,0.041,1.933,0.22,2.9c0.179,0.969,0.468,1.9,0.841,2.79c-0.851,0.586-1.615,1.297-2.271,2.119
		C12.67,30.032,11.885,28.58,11.58,26.93z M16.315,17.901c-0.586,1.219-0.984,2.505-1.187,3.822
		c-0.781-0.21-1.535-0.528-2.244-0.951C13.728,19.536,14.908,18.535,16.315,17.901z M27.825,23.922
		c0.307,1.66,0.091,3.295-0.528,4.741c-0.908-0.534-1.876-0.926-2.881-1.166c0.03-0.963-0.04-1.935-0.219-2.902
		c-0.179-0.968-0.467-1.897-0.841-2.786c0.854-0.585,1.621-1.298,2.279-2.125C26.734,20.819,27.52,22.273,27.825,23.922z
		 M23.08,32.954c0.586-1.219,0.985-2.506,1.188-3.826c0.785,0.209,1.541,0.529,2.254,0.953
		C25.675,31.321,24.491,32.323,23.08,32.954z M19.259,33.668c-1.566-0.08-3.032-0.598-4.261-1.449
		c0.516-0.656,1.111-1.227,1.772-1.705C17.434,31.678,18.27,32.739,19.259,33.668z M20.358,28.969
		c0.77-0.141,1.542-0.174,2.303-0.117c-0.228,1.506-0.742,2.959-1.531,4.305c-1.22-0.973-2.22-2.145-2.971-3.467
		C18.852,29.362,19.586,29.112,20.358,28.969z M20.133,17.183c1.572,0.08,3.042,0.597,4.273,1.451
		c-0.517,0.657-1.114,1.23-1.778,1.71C21.963,19.178,21.125,18.115,20.133,17.183z M21.238,21.167
		c-0.69,0.327-1.423,0.574-2.192,0.716C18.275,22.027,17.5,22.059,16.734,22c0.228-1.504,0.742-2.958,1.533-4.301
		C19.485,18.669,20.487,19.845,21.238,21.167z M16.789,25.966c-0.144-0.782-0.21-1.568-0.2-2.349
		c0.274,0.022,0.547,0.034,0.824,0.034c0.641,0,1.286-0.059,1.928-0.177c0.917-0.17,1.788-0.465,2.61-0.856
		c0.29,0.727,0.511,1.486,0.655,2.271c0.146,0.785,0.212,1.573,0.202,2.355c-0.907-0.071-1.827-0.034-2.744,0.136
		c-0.918,0.17-1.793,0.467-2.617,0.859C17.155,27.512,16.935,26.75,16.789,25.966z M21.501,35.139
		c2.594-0.482,4.846-1.941,6.341-4.117c1.495-2.174,2.054-4.8,1.573-7.394c-0.868-4.683-4.949-8.081-9.704-8.081
		c-0.602,0-1.21,0.056-1.808,0.167c-5.355,0.993-8.905,6.156-7.914,11.512c0.867,4.682,4.947,8.08,9.702,8.08
		C20.295,35.305,20.903,35.249,21.501,35.139z"/>
</g>
</svg>
