<?xml version="1.0" encoding="utf-8"?>
<!-- Generator: Adobe Illustrator 16.0.0, SVG Export Plug-In . SVG Version: 6.00 Build 0)  -->
<!DOCTYPE svg PUBLIC "-//W3C//DTD SVG 1.1//EN" "http://www.w3.org/Graphics/SVG/1.1/DTD/svg11.dtd">
<svg version="1.1" id="Ebene_1" xmlns="http://www.w3.org/2000/svg" xmlns:xlink="http://www.w3.org/1999/xlink" x="0px" y="0px"
	 width="52.028px" height="52.527px" viewBox="0 0 52.028 52.527" enable-background="new 0 0 52.028 52.527" xml:space="preserve">
<path opacity="0.3216" fill="#B0AFCB" d="M25.578,8.113c0.683,0,1.365,0.033,2.043,0.1c0.681,0.066,1.354,0.167,2.022,0.3
	c0.671,0.134,1.332,0.299,1.985,0.498c0.653,0.197,1.295,0.427,1.926,0.688s1.248,0.554,1.849,0.875
	c0.603,0.322,1.188,0.673,1.755,1.052s1.115,0.786,1.644,1.219c0.527,0.434,1.031,0.891,1.516,1.374
	c0.481,0.483,0.939,0.989,1.373,1.516c0.435,0.528,0.839,1.075,1.219,1.643c0.379,0.568,0.729,1.153,1.051,1.755
	c0.322,0.602,0.613,1.219,0.875,1.849c0.261,0.63,0.49,1.272,0.688,1.926c0.199,0.653,0.365,1.315,0.496,1.984
	c0.134,0.67,0.234,1.345,0.302,2.023c0.067,0.681,0.101,1.36,0.101,2.044c0,0.683-0.033,1.363-0.101,2.043
	c-0.067,0.681-0.168,1.354-0.302,2.022c-0.131,0.67-0.297,1.331-0.496,1.985c-0.198,0.652-0.428,1.295-0.688,1.925
	c-0.262,0.632-0.553,1.248-0.875,1.85c-0.321,0.603-0.672,1.188-1.051,1.755c-0.38,0.566-0.784,1.115-1.219,1.643
	c-0.434,0.527-0.892,1.032-1.373,1.517c-0.484,0.481-0.988,0.938-1.516,1.373c-0.528,0.435-1.076,0.839-1.644,1.217
	c-0.567,0.381-1.152,0.73-1.755,1.053c-0.601,0.322-1.218,0.613-1.849,0.875c-0.631,0.261-1.272,0.49-1.926,0.688
	c-0.653,0.199-1.314,0.365-1.985,0.496c-0.669,0.134-1.342,0.234-2.022,0.302c-0.678,0.066-1.36,0.1-2.043,0.1
	c-0.684,0-1.364-0.033-2.042-0.1c-0.68-0.067-1.354-0.168-2.024-0.302c-0.669-0.131-1.331-0.297-1.984-0.496
	c-0.653-0.198-1.295-0.428-1.926-0.688c-0.63-0.262-1.248-0.553-1.85-0.875s-1.187-0.672-1.754-1.053
	c-0.568-0.378-1.115-0.782-1.643-1.217c-0.527-0.435-1.033-0.892-1.516-1.373c-0.483-0.484-0.94-0.989-1.374-1.517
	c-0.433-0.527-0.839-1.076-1.218-1.643c-0.379-0.567-0.73-1.152-1.052-1.755c-0.321-0.602-0.613-1.218-0.875-1.85
	c-0.261-0.63-0.491-1.272-0.689-1.925c-0.198-0.654-0.364-1.315-0.497-1.985C5.001,32.353,4.901,31.68,4.834,31
	c-0.067-0.68-0.1-1.36-0.1-2.043c0-0.684,0.033-1.363,0.1-2.044c0.067-0.678,0.167-1.353,0.3-2.023
	c0.133-0.669,0.299-1.331,0.497-1.984C5.83,22.252,6.06,21.61,6.321,20.98s0.553-1.247,0.875-1.849
	c0.322-0.602,0.672-1.187,1.052-1.755c0.379-0.567,0.786-1.115,1.218-1.643c0.434-0.527,0.891-1.033,1.374-1.516
	c0.483-0.483,0.988-0.94,1.516-1.374c0.528-0.433,1.075-0.84,1.643-1.219c0.567-0.379,1.152-0.73,1.754-1.052
	c0.602-0.321,1.219-0.613,1.85-0.875c0.631-0.261,1.272-0.491,1.926-0.688c0.653-0.199,1.315-0.364,1.984-0.498
	c0.669-0.133,1.344-0.233,2.024-0.3C24.214,8.146,24.895,8.113,25.578,8.113z"/>
<path fill="#4E5C9F" d="M17.151,2.921c1.795,0,3.256,1.461,3.256,3.256c0,1.796-1.46,3.257-3.256,3.257
	c-1.795,0-3.256-1.461-3.256-3.257C13.896,4.382,15.356,2.921,17.151,2.921z M17.151,11.228c2.785,0,5.051-2.265,5.051-5.051
	c0-2.784-2.266-5.05-5.051-5.05c-2.784,0-5.051,2.266-5.051,5.05C12.101,8.963,14.367,11.228,17.151,11.228z"/>
<path fill="#4E5C9F" d="M35.294,46.964c1.323-1.693,2.334-3.574,3.003-5.577c1.188,0.537,2.293,1.262,3.28,2.16
	C39.922,45.28,37.744,46.504,35.294,46.964z M24.707,43.547c0.984-0.896,2.086-1.618,3.271-2.155c0.668,2,1.676,3.879,2.998,5.57
	C28.532,46.501,26.358,45.276,24.707,43.547z M21.467,47.165h-3.418V34.234c0-0.496-0.402-0.898-0.897-0.898
	c-0.496,0-0.897,0.402-0.897,0.898v12.931h-3.418V21.247c0-0.496-0.402-0.898-0.897-0.898c-0.495,0-0.897,0.402-0.897,0.898v9.857
	l-2.929-1.455v-9.234c0-3.043,1.867-5.793,4.792-7.119l3.771,2.36c0.018,0.01,0.036,0.017,0.054,0.026
	c0.028,0.015,0.054,0.03,0.083,0.042c0.028,0.011,0.057,0.02,0.084,0.028c0.027,0.008,0.053,0.016,0.081,0.021
	c0.029,0.006,0.059,0.009,0.089,0.012c0.028,0.003,0.055,0.005,0.084,0.005c0.028,0,0.056-0.002,0.084-0.005
	c0.03-0.002,0.06-0.005,0.089-0.012c0.027-0.005,0.053-0.013,0.08-0.021c0.029-0.008,0.057-0.017,0.086-0.028
	c0.028-0.011,0.053-0.025,0.08-0.04c0.02-0.01,0.039-0.017,0.058-0.028l3.77-2.36c2.926,1.326,4.792,4.075,4.792,7.119v3.567
	c-1.086,0.659-2.069,1.463-2.928,2.392v-5.127c0-0.496-0.402-0.898-0.897-0.898c-0.495,0-0.897,0.402-0.897,0.898v7.562
	c-1.135,1.975-1.795,4.254-1.795,6.688c0,2.436,0.66,4.717,1.795,6.69V47.165z M41.578,27.448c-0.988,0.899-2.093,1.623-3.281,2.16
	c-0.669-2.002-1.68-3.886-3.003-5.578C37.744,24.489,39.923,25.714,41.578,27.448z M33.136,24.241
	c1.582,1.766,2.755,3.802,3.477,5.994c-1.115,0.319-2.28,0.49-3.47,0.49c-1.195,0-2.362-0.172-3.483-0.494
	C30.383,28.042,31.554,26.005,33.136,24.241z M27.978,29.603c-1.185-0.535-2.287-1.258-3.273-2.155
	c1.653-1.729,3.826-2.955,6.271-3.416C29.653,25.723,28.646,27.604,27.978,29.603z M21.467,35.497c0-2.476,0.78-4.771,2.1-6.661
	c1.178,1.058,2.498,1.908,3.919,2.519c-0.307,1.346-0.47,2.732-0.47,4.144s0.163,2.797,0.47,4.144
	c-1.422,0.611-2.741,1.461-3.918,2.519C22.247,40.268,21.467,37.974,21.467,35.497z M36.612,40.761
	c-0.722,2.192-1.895,4.228-3.477,5.993c-1.582-1.765-2.753-3.8-3.477-5.99c1.121-0.321,2.288-0.494,3.483-0.494
	C34.332,40.27,35.497,40.441,36.612,40.761z M33.143,38.475c-1.355,0-2.683,0.194-3.953,0.558c-0.247-1.151-0.377-2.334-0.377-3.535
	s0.13-2.384,0.377-3.534c1.271,0.362,2.598,0.557,3.953,0.557c1.352,0,2.673-0.192,3.94-0.555c0.247,1.15,0.377,2.332,0.377,3.532
	c0,1.201-0.13,2.382-0.377,3.533C35.815,38.669,34.494,38.475,33.143,38.475z M42.716,42.16c-1.181-1.06-2.503-1.911-3.93-2.522
	c0.307-1.346,0.47-2.73,0.47-4.14s-0.163-2.793-0.47-4.138c1.427-0.613,2.749-1.464,3.93-2.524c1.32,1.891,2.102,4.186,2.102,6.661
	C44.817,37.974,44.036,40.268,42.716,42.16z M33.143,22.028c-1.827,0-3.567,0.369-5.157,1.03v-2.643
	c0-3.924-2.488-7.442-6.338-8.961c-0.264-0.106-0.565-0.078-0.805,0.074l-3.691,2.311l-3.69-2.311
	c-0.241-0.151-0.542-0.178-0.805-0.074c-3.85,1.52-6.338,5.037-6.338,8.961v9.79c0,0.342,0.194,0.652,0.498,0.805l4.226,2.098
	v14.956c0,0.495,0.402,0.897,0.897,0.897h5.213h5.213c0.496,0,0.897-0.402,0.897-0.897V44.62c2.462,2.665,5.974,4.348,9.881,4.348
	c7.427,0,13.469-6.044,13.469-13.471C46.611,28.069,40.569,22.028,33.143,22.028z"/>
</svg>
