<?xml version="1.0" encoding="utf-8"?>
<!-- Generator: Adobe Illustrator 16.0.0, SVG Export Plug-In . SVG Version: 6.00 Build 0)  -->
<!DOCTYPE svg PUBLIC "-//W3C//DTD SVG 1.1//EN" "http://www.w3.org/Graphics/SVG/1.1/DTD/svg11.dtd">
<svg version="1.1" id="Ebene_1" xmlns="http://www.w3.org/2000/svg" xmlns:xlink="http://www.w3.org/1999/xlink" x="0px" y="0px"
	 width="52.028px" height="52.527px" viewBox="0 0 52.028 52.527" enable-background="new 0 0 52.028 52.527" xml:space="preserve">
<path opacity="0.3216" fill="#B0AFCB" d="M28.679,3.956c0.719,0,1.438,0.035,2.152,0.105c0.717,0.07,1.428,0.176,2.133,0.316
	c0.706,0.141,1.403,0.315,2.092,0.524c0.688,0.208,1.365,0.451,2.03,0.726S38.4,6.21,39.034,6.549
	c0.635,0.339,1.252,0.709,1.85,1.108c0.599,0.4,1.176,0.828,1.732,1.285s1.088,0.939,1.598,1.448
	c0.508,0.509,0.991,1.042,1.447,1.598c0.457,0.556,0.885,1.133,1.285,1.731c0.399,0.599,0.769,1.215,1.107,1.85
	c0.34,0.635,0.646,1.284,0.922,1.949c0.275,0.665,0.518,1.341,0.727,2.03s0.384,1.386,0.523,2.091
	c0.141,0.706,0.246,1.417,0.316,2.133c0.071,0.716,0.106,1.434,0.106,2.153c0,0.72-0.035,1.438-0.106,2.153
	c-0.07,0.717-0.176,1.428-0.316,2.133c-0.14,0.705-0.314,1.402-0.523,2.092c-0.209,0.688-0.451,1.365-0.727,2.029
	c-0.275,0.666-0.582,1.314-0.922,1.949c-0.339,0.635-0.708,1.252-1.107,1.85c-0.4,0.598-0.828,1.176-1.285,1.732
	c-0.456,0.555-0.939,1.088-1.447,1.598c-0.51,0.508-1.041,0.99-1.598,1.447s-1.134,0.885-1.732,1.283
	c-0.598,0.4-1.215,0.77-1.85,1.109c-0.634,0.34-1.283,0.646-1.948,0.922s-1.342,0.518-2.03,0.727s-1.386,0.383-2.092,0.523
	c-0.705,0.141-1.416,0.246-2.133,0.316c-0.715,0.07-1.434,0.105-2.152,0.105c-0.721,0-1.438-0.035-2.154-0.105
	c-0.716-0.07-1.427-0.176-2.133-0.316s-1.403-0.314-2.091-0.523c-0.689-0.209-1.365-0.451-2.03-0.727s-1.314-0.582-1.949-0.922
	c-0.634-0.34-1.251-0.709-1.849-1.109c-0.598-0.398-1.175-0.826-1.732-1.283c-0.556-0.457-1.088-0.939-1.597-1.447
	c-0.509-0.51-0.992-1.043-1.448-1.598c-0.457-0.557-0.884-1.135-1.284-1.732s-0.769-1.215-1.108-1.85s-0.646-1.283-0.922-1.949
	c-0.275-0.664-0.518-1.342-0.727-2.029c-0.208-0.689-0.383-1.387-0.524-2.092c-0.14-0.705-0.246-1.416-0.316-2.133
	c-0.07-0.716-0.105-1.434-0.105-2.153c0-0.719,0.035-1.437,0.105-2.153c0.071-0.716,0.176-1.427,0.316-2.133
	c0.141-0.706,0.315-1.403,0.524-2.091c0.209-0.688,0.451-1.365,0.727-2.03c0.275-0.665,0.583-1.314,0.922-1.949
	s0.708-1.251,1.108-1.85c0.4-0.598,0.828-1.175,1.284-1.731s0.939-1.089,1.448-1.598c0.509-0.509,1.041-0.991,1.597-1.448
	c0.557-0.457,1.134-0.885,1.732-1.285c0.598-0.399,1.215-0.769,1.849-1.108c0.635-0.339,1.284-0.646,1.949-0.922
	s1.341-0.518,2.03-0.726c0.688-0.209,1.386-0.383,2.091-0.524s1.417-0.246,2.133-0.316C27.241,3.991,27.958,3.956,28.679,3.956z"/>
<path fill="#4E5B9F" d="M44.811,8.937c-0.87-1.023-2.089-1.646-3.429-1.753l-4.787-0.383c-0.511-0.038-0.959,0.339-1,0.852
	c-0.041,0.511,0.34,0.959,0.852,1l4.788,0.383c0.845,0.067,1.612,0.46,2.163,1.105c0.549,0.646,0.814,1.466,0.746,2.311
	l-2.486,31.054c-0.066,0.844-0.459,1.613-1.105,2.162c-0.645,0.549-1.464,0.816-2.31,0.748l-5.426-0.436
	c-0.507-0.039-0.96,0.34-1.001,0.852s0.34,0.959,0.852,1l5.427,0.436c0.137,0.01,0.273,0.016,0.409,0.016
	c1.193,0,2.336-0.42,3.254-1.201c1.023-0.871,1.646-2.088,1.753-3.428L45.995,12.6C46.104,11.261,45.683,9.96,44.811,8.937z"/>
<path fill="#4E5B9F" d="M14.157,46.655c-0.203,0.039-0.408,0.059-0.611,0.059c-1.512,0-2.82-1.078-3.109-2.566L4.479,13.568
	c-0.162-0.832,0.01-1.677,0.483-2.379c0.474-0.703,1.193-1.179,2.024-1.341l20.405-3.976c0.203-0.04,0.408-0.06,0.612-0.06
	c1.513,0,2.819,1.08,3.109,2.567l5.958,30.579c0.334,1.717-0.791,3.385-2.508,3.721L14.157,46.655z M38.894,38.604L32.937,8.025
	c-0.459-2.358-2.533-4.069-4.933-4.069c-0.323,0-0.647,0.031-0.967,0.094L6.631,8.025C5.313,8.281,4.173,9.036,3.422,10.15
	c-0.751,1.115-1.022,2.455-0.766,3.773l5.958,30.579c0.458,2.357,2.533,4.068,4.933,4.068c0.323,0,0.647-0.029,0.966-0.092
	l20.406-3.977C37.64,43.973,39.424,41.325,38.894,38.604z"/>
<path fill="#4E5B9F" d="M27.795,34.182L17.24,36.237c-0.503,0.1-0.833,0.586-0.734,1.09c0.086,0.443,0.475,0.752,0.91,0.752
	c0.059,0,0.12-0.006,0.179-0.018l10.555-2.057c0.503-0.098,0.833-0.586,0.733-1.088C28.786,34.413,28.296,34.081,27.795,34.182z"/>
<path fill="#4E5B9F" d="M32.528,38.239l-18.152,3.537c-0.503,0.098-0.833,0.586-0.734,1.088c0.086,0.445,0.475,0.752,0.911,0.752
	c0.059,0,0.119-0.006,0.179-0.018l18.153-3.537c0.504-0.098,0.832-0.584,0.734-1.088S33.028,38.139,32.528,38.239z"/>
<path fill="#4E5B9F" d="M10.426,23.393c-0.353-1.903-0.105-3.78,0.604-5.439c1.041,0.612,2.152,1.059,3.304,1.335
	c-0.034,1.106,0.046,2.222,0.251,3.333c0.207,1.113,0.538,2.183,0.967,3.206c-0.978,0.67-1.855,1.488-2.61,2.434
	C11.679,26.958,10.776,25.287,10.426,23.393z M15.868,13.018c-0.673,1.4-1.13,2.878-1.364,4.392
	c-0.898-0.241-1.764-0.607-2.58-1.093C12.894,14.896,14.25,13.746,15.868,13.018z M29.093,19.936
	c0.354,1.906,0.104,3.786-0.607,5.447c-1.043-0.614-2.156-1.063-3.311-1.339c0.035-1.107-0.045-2.224-0.251-3.336
	s-0.537-2.18-0.965-3.201c0.981-0.672,1.862-1.492,2.618-2.441C27.839,16.371,28.741,18.042,29.093,19.936z M23.639,30.315
	c0.675-1.4,1.132-2.881,1.365-4.396c0.902,0.24,1.771,0.607,2.589,1.094C26.623,28.436,25.262,29.588,23.639,30.315z M19.25,31.135
	c-1.8-0.094-3.484-0.688-4.896-1.666c0.592-0.752,1.276-1.408,2.036-1.959C17.153,28.848,18.113,30.065,19.25,31.135z
	 M20.513,25.736c0.884-0.163,1.771-0.2,2.646-0.134c-0.262,1.729-0.852,3.4-1.76,4.943c-1.4-1.115-2.55-2.465-3.413-3.982
	C18.782,26.185,19.626,25.901,20.513,25.736z M20.254,12.192c1.805,0.092,3.495,0.686,4.91,1.667
	c-0.594,0.755-1.281,1.414-2.043,1.965C22.356,14.484,21.395,13.264,20.254,12.192z M21.523,16.77
	c-0.793,0.376-1.634,0.66-2.518,0.824c-0.887,0.165-1.778,0.201-2.656,0.133c0.262-1.728,0.852-3.399,1.76-4.943
	C19.51,13.901,20.661,15.25,21.523,16.77z M16.412,22.284c-0.167-0.899-0.242-1.802-0.23-2.699c0.314,0.025,0.629,0.04,0.946,0.04
	c0.736,0,1.478-0.068,2.216-0.204c1.053-0.195,2.055-0.534,2.999-0.983c0.333,0.835,0.587,1.708,0.754,2.609
	c0.167,0.902,0.243,1.808,0.23,2.707c-1.042-0.082-2.099-0.039-3.152,0.156c-1.056,0.196-2.062,0.536-3.008,0.987
	C16.833,24.06,16.579,23.187,16.412,22.284z M21.825,32.825c2.981-0.553,5.568-2.232,7.287-4.73
	c1.717-2.498,2.359-5.515,1.808-8.497c-0.997-5.38-5.686-9.285-11.149-9.285c-0.693,0-1.392,0.064-2.078,0.191
	c-6.153,1.141-10.233,7.074-9.094,13.228c0.997,5.381,5.685,9.285,11.147,9.285C20.439,33.016,21.139,32.952,21.825,32.825z"/>
</svg>
